HIERARCHY
ROOT hip
{
	OFFSET 0.000000 0.000000 0.000000 
	CHANNELS 6 Xposition Yposition Zposition Zrotation Yrotation Xrotation
	JOINT abdomen
	{
		OFFSET 0.000000 20.688101 -0.731520 
		CHANNELS 3 Zrotation Xrotation Yrotation
		JOINT chest
		{
			OFFSET 0.000000 11.704300 -0.487680 
			CHANNELS 3 Zrotation Xrotation Yrotation
			JOINT neck
			{
				OFFSET 0.000000 22.189400 -2.194560 
				CHANNELS 3 Zrotation Xrotation Yrotation
				JOINT head
				{
					OFFSET -0.243840 7.071330 1.219200 
					CHANNELS 3 Zrotation Xrotation Yrotation
					End Site
					{
						OFFSET 1.000000 0.000000 0.000000 
					}
				}
			}
			JOINT rCollar
			{
				OFFSET -2.682240 19.263399 -4.876800 
				CHANNELS 3 Zrotation Xrotation Yrotation
				JOINT rShldr
				{
					OFFSET -8.778240 -1.950730 1.463040 
					CHANNELS 3 Zrotation Xrotation Yrotation
					JOINT rForeArm
					{
						OFFSET -28.174200 -1.711500 0.487680 
						CHANNELS 3 Zrotation Xrotation Yrotation
						JOINT rHand
						{
							OFFSET -22.587900 0.773209 7.071360 
							CHANNELS 3 Zrotation Xrotation Yrotation
							JOINT rThumb1
							{
								OFFSET -1.219200 -0.487915 3.413760 
								CHANNELS 3 Zrotation Xrotation Yrotation
								JOINT rThumb2
								{
									OFFSET -3.370350 -0.524490 3.413760 
									CHANNELS 3 Zrotation Xrotation Yrotation
									End Site
									{
										OFFSET -1.782710 -1.182140 1.430490 
									}
								}
							}
							JOINT rIndex1
							{
								OFFSET -7.759470 0.938293 5.608320 
								CHANNELS 3 Zrotation Xrotation Yrotation
								JOINT rIndex2
								{
									OFFSET -2.540570 -0.884171 1.565380 
									CHANNELS 3 Zrotation Xrotation Yrotation
									End Site
									{
										OFFSET -1.625190 -0.234802 1.165020 
									}
								}
							}
							JOINT rMid1
							{
								OFFSET -8.247140 1.182130 3.413760 
								CHANNELS 3 Zrotation Xrotation Yrotation
								JOINT rMid2
								{
									OFFSET -3.101650 -0.590103 1.064700 
									CHANNELS 3 Zrotation Xrotation Yrotation
									End Site
									{
										OFFSET -2.485470 -0.328903 0.837420 
									}
								}
							}
							JOINT rRing1
							{
								OFFSET -8.828220 0.546677 1.516780 
								CHANNELS 3 Zrotation Xrotation Yrotation
								JOINT rRing2
								{
									OFFSET -2.609340 -0.819778 -0.019849 
									CHANNELS 3 Zrotation Xrotation Yrotation
									End Site
									{
										OFFSET -2.338420 -0.294052 0.168128 
									}
								}
							}
							JOINT rPinky1
							{
								OFFSET -8.272020 -0.047791 -0.458400 
								CHANNELS 3 Zrotation Xrotation Yrotation
								JOINT rPinky2
								{
									OFFSET -1.827340 -0.647385 -0.700984 
									CHANNELS 3 Zrotation Xrotation Yrotation
									End Site
									{
										OFFSET -1.692250 -0.517670 -0.607171 
									}
								}
							}
						}
					}
				}
			}
			JOINT lCollar
			{
				OFFSET 2.682240 19.263399 -4.876800 
				CHANNELS 3 Zrotation Xrotation Yrotation
				JOINT lShldr
				{
					OFFSET 8.778240 -1.950730 1.463040 
					CHANNELS 3 Zrotation Xrotation Yrotation
					JOINT lForeArm
					{
						OFFSET 28.174200 -1.711500 0.487680 
						CHANNELS 3 Zrotation Xrotation Yrotation
						JOINT lHand
						{
							OFFSET 22.587900 0.773209 7.071360 
							CHANNELS 3 Zrotation Xrotation Yrotation
							JOINT lThumb1
							{
								OFFSET 1.219200 -0.487915 3.413760 
								CHANNELS 3 Zrotation Xrotation Yrotation
								JOINT lThumb2
								{
									OFFSET 3.370350 -0.524490 3.413760 
									CHANNELS 3 Zrotation Xrotation Yrotation
									End Site
									{
										OFFSET 1.782710 -1.182140 1.430490 
									}
								}
							}
							JOINT lIndex1
							{
								OFFSET 7.759470 0.938293 5.608320 
								CHANNELS 3 Zrotation Xrotation Yrotation
								JOINT lIndex2
								{
									OFFSET 2.540570 -0.884171 1.565380 
									CHANNELS 3 Zrotation Xrotation Yrotation
									End Site
									{
										OFFSET 1.625190 -0.234802 1.165020 
									}
								}
							}
							JOINT lMid1
							{
								OFFSET 8.247140 1.182130 3.413760 
								CHANNELS 3 Zrotation Xrotation Yrotation
								JOINT lMid2
								{
									OFFSET 3.101650 -0.590103 1.064700 
									CHANNELS 3 Zrotation Xrotation Yrotation
									End Site
									{
										OFFSET 2.485470 -0.328903 0.837420 
									}
								}
							}
							JOINT lRing1
							{
								OFFSET 8.828220 0.546677 1.516780 
								CHANNELS 3 Zrotation Xrotation Yrotation
								JOINT lRing2
								{
									OFFSET 2.609340 -0.819778 -0.019849 
									CHANNELS 3 Zrotation Xrotation Yrotation
									End Site
									{
										OFFSET 2.338420 -0.294052 0.168128 
									}
								}
							}
							JOINT lPinky1
							{
								OFFSET 8.272020 -0.047791 -0.458400 
								CHANNELS 3 Zrotation Xrotation Yrotation
								JOINT lPinky2
								{
									OFFSET 1.827340 -0.647385 -0.700984 
									CHANNELS 3 Zrotation Xrotation Yrotation
									End Site
									{
										OFFSET 1.692250 -0.517670 -0.607171 
									}
								}
							}
						}
					}
				}
			}
		}
	}
	JOINT rButtock
	{
		OFFSET -8.778240 4.350840 1.219200 
		CHANNELS 3 Zrotation Xrotation Yrotation
		JOINT rThigh
		{
			OFFSET 0.000000 -1.706870 -2.194560 
			CHANNELS 3 Zrotation Xrotation Yrotation
			JOINT rShin
			{
				OFFSET 0.000000 -36.819901 0.731520 
				CHANNELS 3 Zrotation Xrotation Yrotation
				JOINT rFoot
				{
					OFFSET 0.731520 -45.110401 -5.120640 
					CHANNELS 3 Zrotation Xrotation Yrotation
					End Site
					{
						OFFSET -1.122100 -3.699640 12.103000 
					}
				}
			}
		}
	}
	JOINT lButtock
	{
		OFFSET 8.778240 4.350840 1.219200 
		CHANNELS 3 Zrotation Xrotation Yrotation
		JOINT lThigh
		{
			OFFSET 0.000000 -1.706870 -2.194560 
			CHANNELS 3 Zrotation Xrotation Yrotation
			JOINT lShin
			{
				OFFSET 0.000000 -36.819901 0.731520 
				CHANNELS 3 Zrotation Xrotation Yrotation
				JOINT lFoot
				{
					OFFSET -0.731520 -45.110401 -5.120640 
					CHANNELS 3 Zrotation Xrotation Yrotation
					End Site
					{
						OFFSET 1.122100 -3.699640 12.103000 
					}
				}
			}
		}
	}
}
MOTION
Frames: 9
Frame Time: 0.008333
51.737999 82.552803 -140.692993 -0.049700 -27.562700 10.962300 -11.312200 24.818501 1.581270 3.905030 -8.103540 -0.004043 -6.471060 -6.113020 -1.669700 8.796640 4.144050 -1.242130 -0.000000 -0.000000 0.000000 80.633904 10.594300 -0.074542 -13.042700 -6.207330 23.647100 -0.296621 15.315700 2.205810 0.000000 0.000000 -0.000000 0.000000 0.000000 -0.000000 0.000000 0.000000 -0.000000 7.730910 5.474880 0.417314 0.000000 0.000000 -0.000000 2.905540 0.965183 0.102902 0.000000 0.000000 -0.000000 10.278600 0.731801 0.025912 0.000000 0.000000 -0.000000 2.221670 -0.733487 -0.208920 -0.000000 -0.000000 0.000000 -70.758301 0.213238 -24.797400 10.454200 -4.421970 -18.656000 0.066810 7.355010 -1.039450 -0.000000 0.000000 0.000000 0.000000 0.000000 0.000000 -0.000000 0.000000 0.000000 -7.730910 5.474880 -0.417314 -0.000000 0.000000 0.000000 -2.905540 0.965183 -0.102902 -0.000000 0.000000 0.000000 -10.278600 0.731801 -0.025912 -0.000000 0.000000 0.000000 -2.221670 -0.733487 0.208920 -0.000000 0.000000 -0.000000 2.383030 -41.722301 10.022400 -1.181230 61.816601 1.686810 -4.078830 -13.152400 -10.653000 0.000000 0.000000 0.000000 -6.298630 -18.504801 -2.871200 0.189932 37.899799 -1.054440 9.081320 -27.048700 16.141701 
51.514702 82.499496 -139.826004 -0.104100 -27.910601 11.160900 -11.375200 24.919901 1.415630 4.035320 -8.066270 -0.044372 -6.472950 -6.003860 -1.633740 8.847070 3.759730 -1.150480 -0.000000 0.000000 0.000000 80.713501 10.119800 -0.158361 -13.026900 -6.195320 23.615999 -0.296392 15.309600 2.204880 0.000000 0.000000 -0.000000 0.000000 0.000000 -0.000000 0.000000 0.000000 -0.000000 7.730910 5.474880 0.417314 0.000000 0.000000 -0.000000 2.905540 0.965183 0.102902 0.000000 0.000000 -0.000000 10.278600 0.731801 0.025912 0.000000 0.000000 -0.000000 2.221670 -0.733487 -0.208920 -0.000000 0.000000 0.000000 -70.008202 0.962163 -25.376200 10.772000 -4.627120 -19.251900 0.052734 6.517960 -0.920156 0.000000 0.000000 0.000000 0.000000 0.000000 0.000000 0.000000 0.000000 0.000000 -7.730910 5.474880 -0.417314 0.000000 0.000000 0.000000 -2.905540 0.965183 -0.102902 0.000000 0.000000 0.000000 -10.278600 0.731801 -0.025912 0.000000 0.000000 0.000000 -2.221670 -0.733487 0.208920 -0.000000 0.000000 -0.000000 2.708200 -42.403599 10.483200 -1.126020 61.069901 1.641300 -4.146630 -13.843700 -10.542600 0.000000 0.000000 0.000000 -6.537980 -17.771400 -2.810690 0.180273 37.548401 -1.073320 9.286330 -26.981300 16.523600 
51.330299 82.452202 -138.944000 0.105300 -28.076799 11.204300 -11.471100 25.021601 1.285620 4.182500 -8.048020 -0.074733 -6.578810 -5.725030 -1.630260 9.045800 3.115570 -1.086110 -0.000000 0.000000 0.000000 80.792099 9.626930 -0.244769 -13.027900 -6.196080 23.618000 -0.294208 15.254600 2.196580 0.000000 0.000000 -0.000000 0.000000 0.000000 -0.000000 0.000000 0.000000 -0.000000 7.730910 5.474880 0.417314 0.000000 0.000000 -0.000000 2.905540 0.965183 0.102902 0.000000 0.000000 -0.000000 10.278600 0.731801 0.025912 0.000000 0.000000 -0.000000 2.221670 -0.733487 -0.208920 -0.000000 0.000000 0.000000 -69.312202 1.620780 -25.969200 11.138300 -4.867300 -19.945999 0.040353 5.735630 -0.808871 0.000000 0.000000 0.000000 0.000000 0.000000 0.000000 0.000000 0.000000 0.000000 -7.730910 5.474880 -0.417314 0.000000 0.000000 0.000000 -2.905540 0.965183 -0.102902 0.000000 0.000000 0.000000 -10.278600 0.731801 -0.025912 0.000000 0.000000 0.000000 -2.221670 -0.733487 0.208920 -0.000000 0.000000 -0.000000 3.054190 -43.118698 11.022200 -1.070200 60.263500 1.593840 -4.218290 -14.509700 -10.462300 0.000000 0.000000 0.000000 -6.742390 -17.068199 -2.648450 0.170260 37.155998 -1.089460 9.413900 -26.851299 16.796101 
51.143299 82.405296 -138.011993 0.316100 -28.256500 11.177700 -11.559000 25.119699 1.142700 4.329240 -8.035480 -0.107918 -6.711230 -5.393750 -1.634350 9.291130 2.414370 -1.029330 0.000000 0.000000 0.000000 80.871597 9.134200 -0.335042 -13.033100 -6.200080 23.628201 -0.290879 15.170700 2.183900 -0.000000 0.000000 -0.000000 -0.000000 0.000000 -0.000000 -0.000000 0.000000 -0.000000 7.730910 5.474880 0.417314 -0.000000 0.000000 -0.000000 2.905540 0.965183 0.102902 -0.000000 0.000000 -0.000000 10.278600 0.731801 0.025912 -0.000000 0.000000 -0.000000 2.221670 -0.733487 -0.208920 0.000000 0.000000 0.000000 -68.627899 2.201720 -26.558399 11.496000 -5.104780 -20.633101 0.030956 5.057900 -0.712687 0.000000 0.000000 0.000000 0.000000 0.000000 0.000000 0.000000 0.000000 0.000000 -7.730910 5.474880 -0.417314 0.000000 0.000000 0.000000 -2.905540 0.965183 -0.102902 0.000000 0.000000 0.000000 -10.278600 0.731801 -0.025912 0.000000 0.000000 0.000000 -2.221670 -0.733487 0.208920 -0.000000 0.000000 -0.000000 3.402490 -43.821899 11.597800 -1.015070 59.414101 1.545850 -4.294240 -15.129900 -10.419300 0.000000 0.000000 0.000000 -6.933350 -16.357000 -2.476600 0.159936 36.723400 -1.103030 9.481720 -26.684700 16.981100 
50.908199 82.398598 -137.097000 0.211300 -28.291500 11.362500 -11.597800 25.210199 0.938180 4.458220 -8.015380 -0.156718 -6.793210 -5.127260 -1.621090 9.481270 1.858930 -0.960248 0.000000 0.000000 -0.000000 80.954201 8.660070 -0.430472 -13.030100 -6.197840 23.622200 -0.287197 15.077700 2.169850 -0.000000 0.000000 -0.000000 -0.000000 0.000000 -0.000000 -0.000000 0.000000 -0.000000 7.730910 5.474880 0.417314 -0.000000 0.000000 -0.000000 2.905540 0.965183 0.102902 -0.000000 0.000000 -0.000000 10.278600 0.731801 0.025912 -0.000000 0.000000 -0.000000 2.221670 -0.733487 -0.208920 0.000000 0.000000 -0.000000 -67.912804 2.717790 -27.125799 11.791600 -5.303540 -21.207199 0.025286 4.534640 -0.638649 0.000000 0.000000 0.000000 0.000000 0.000000 0.000000 0.000000 0.000000 0.000000 -7.730910 5.474880 -0.417314 0.000000 0.000000 0.000000 -2.905540 0.965183 -0.102902 0.000000 0.000000 0.000000 -10.278600 0.731801 -0.025912 0.000000 0.000000 0.000000 -2.221670 -0.733487 0.208920 -0.000000 0.000000 -0.000000 3.729260 -44.468800 12.164100 -0.961666 58.538399 1.498480 -4.375170 -15.684000 -10.420300 0.000000 0.000000 0.000000 -7.128000 -15.599600 -2.386090 0.149356 36.251598 -1.114180 9.508150 -26.507099 17.100599 
50.690498 82.394203 -136.205002 0.194600 -28.124001 11.568900 -11.568900 25.304501 0.647084 4.555770 -7.980290 -0.228662 -6.788990 -4.972360 -1.582430 9.590420 1.511510 -0.874929 0.000000 0.000000 -0.000000 81.054199 8.178260 -0.521872 -13.012100 -6.184280 23.586599 -0.284515 15.006200 2.159110 -0.000000 0.000000 -0.000000 -0.000000 0.000000 -0.000000 -0.000000 0.000000 -0.000000 7.730910 5.474880 0.417314 -0.000000 0.000000 -0.000000 2.905540 0.965183 0.102902 -0.000000 0.000000 -0.000000 10.278600 0.731801 0.025912 -0.000000 0.000000 -0.000000 2.221670 -0.733487 -0.208920 0.000000 0.000000 -0.000000 -67.129204 3.171930 -27.688601 12.007000 -5.451510 -21.626600 0.023047 4.250880 -0.598610 0.000000 0.000000 0.000000 0.000000 0.000000 0.000000 0.000000 0.000000 0.000000 -7.730910 5.474880 -0.417314 0.000000 0.000000 0.000000 -2.905540 0.965183 -0.102902 0.000000 0.000000 0.000000 -10.278600 0.731801 -0.025912 0.000000 0.000000 0.000000 -2.221670 -0.733487 0.208920 -0.000000 0.000000 -0.000000 4.019800 -45.035599 12.704400 -0.909938 57.631901 1.451830 -4.470570 -16.185600 -10.480200 0.000000 0.000000 0.000000 -7.320630 -14.768500 -2.398460 0.138486 35.730900 -1.122590 9.472220 -26.343800 17.104500 
50.437599 82.332901 -135.149994 0.325000 -28.468000 11.403500 -11.496300 25.400101 0.299144 4.634210 -7.938590 -0.315547 -6.744770 -4.861360 -1.532130 9.671960 1.261230 -0.783417 0.000000 0.000000 -0.000000 81.166000 7.689350 -0.611763 -12.986800 -6.165290 23.536900 -0.282037 14.937300 2.148780 0.000000 -0.000000 -0.000000 0.000000 -0.000000 -0.000000 0.000000 -0.000000 -0.000000 7.730910 5.474880 0.417314 0.000000 -0.000000 -0.000000 2.905540 0.965183 0.102902 0.000000 -0.000000 -0.000000 10.278600 0.731801 0.025912 0.000000 -0.000000 -0.000000 2.221670 -0.733487 -0.208920 0.000000 0.000000 -0.000000 -66.312401 3.559080 -28.247601 12.174800 -5.570130 -21.951900 0.022164 4.156150 -0.585228 0.000000 0.000000 -0.000000 0.000000 0.000000 -0.000000 0.000000 0.000000 -0.000000 -7.730910 5.474880 -0.417314 0.000000 0.000000 -0.000000 -2.905540 0.965183 -0.102902 0.000000 0.000000 -0.000000 -10.278600 0.731801 -0.025912 0.000000 0.000000 -0.000000 -2.221670 -0.733487 0.208920 -0.000000 0.000000 -0.000000 4.286250 -45.550301 13.242200 -0.859712 56.688801 1.405600 -4.579390 -16.638901 -10.591300 0.000000 0.000000 0.000000 -7.501490 -13.890100 -2.465140 0.127411 35.164200 -1.128390 9.374220 -26.175100 17.000401 
50.210300 82.332497 -134.253998 0.455900 -28.458900 11.531700 -11.403000 25.472099 -0.072050 4.715240 -7.900650 -0.406559 -6.706870 -4.739660 -1.477900 9.742940 1.051170 -0.686752 -0.000000 -0.000000 -0.000000 81.261101 7.251980 -0.718961 -12.963700 -6.147850 23.491199 -0.277370 14.816000 2.130510 0.000000 -0.000000 0.000000 0.000000 -0.000000 0.000000 0.000000 -0.000000 0.000000 7.730910 5.474880 0.417314 0.000000 -0.000000 0.000000 2.905540 0.965183 0.102902 0.000000 -0.000000 0.000000 10.278600 0.731801 0.025912 0.000000 -0.000000 0.000000 2.221670 -0.733487 -0.208920 -0.000000 -0.000000 -0.000000 -65.530296 3.880750 -28.760401 12.319200 -5.674400 -22.230499 0.021149 4.097060 -0.576839 0.000000 -0.000000 -0.000000 0.000000 -0.000000 -0.000000 0.000000 -0.000000 -0.000000 -7.730910 5.474880 -0.417314 0.000000 -0.000000 -0.000000 -2.905540 0.965183 -0.102902 0.000000 -0.000000 -0.000000 -10.278600 0.731801 -0.025912 0.000000 -0.000000 -0.000000 -2.221670 -0.733487 0.208920 -0.000000 0.000000 -0.000000 4.542640 -46.046700 13.789700 -0.811570 55.723400 1.360060 -4.685360 -17.009100 -10.725800 0.000000 0.000000 0.000000 -7.678750 -13.007100 -2.571110 0.116356 34.570999 -1.132460 9.263820 -25.958500 16.896700 
49.939400 82.355202 -133.335999 0.421300 -28.453199 11.697900 -11.312900 25.495701 -0.432499 4.820450 -7.876880 -0.490898 -6.721730 -4.552690 -1.427510 9.820740 0.824421 -0.585998 -0.000000 -0.000000 -0.000000 81.311203 6.924810 -0.862249 -12.951800 -6.138960 23.468000 -0.268301 14.587200 2.096040 0.000000 -0.000000 0.000000 0.000000 -0.000000 0.000000 0.000000 -0.000000 0.000000 7.730910 5.474880 0.417314 0.000000 -0.000000 0.000000 2.905540 0.965183 0.102902 0.000000 -0.000000 0.000000 10.278600 0.731801 0.025912 0.000000 -0.000000 0.000000 2.221670 -0.733487 -0.208920 -0.000000 -0.000000 -0.000000 -64.851303 4.139020 -29.184799 12.463300 -5.778910 -22.510300 0.018886 3.920210 -0.551820 0.000000 -0.000000 -0.000000 0.000000 -0.000000 -0.000000 0.000000 -0.000000 -0.000000 -7.730910 5.474880 -0.417314 0.000000 -0.000000 -0.000000 -2.905540 0.965183 -0.102902 0.000000 -0.000000 -0.000000 -10.278600 0.731801 -0.025912 0.000000 -0.000000 -0.000000 -2.221670 -0.733487 0.208920 -0.000000 0.000000 -0.000000 4.805510 -46.558300 14.361500 -0.765984 54.749699 1.315390 -4.770920 -17.261700 -10.855500 0.000000 0.000000 0.000000 -7.861720 -12.162400 -2.701570 0.105523 33.971001 -1.135650 9.189170 -25.652201 16.901199 
